<svg xmlns="http://www.w3.org/2000/svg" xmlns:xlink="http://www.w3.org/1999/xlink" width="2000" zoomAndPan="magnify" viewBox="0 0 1500 1499.999933" height="2000" preserveAspectRatio="xMidYMid meet" version="1.0"><defs><g/><clipPath id="c371e79ef2"><path d="M 70.5 0 L 1429.5 0 C 1468.4375 0 1500 31.5625 1500 70.5 L 1500 1429.5 C 1500 1468.4375 1468.4375 1500 1429.5 1500 L 70.5 1500 C 31.5625 1500 0 1468.4375 0 1429.5 L 0 70.5 C 0 31.5625 31.5625 0 70.5 0 Z M 70.5 0 " clip-rule="nonzero"/></clipPath><clipPath id="77ea4271f9"><path d="M 0 0 L 1500 0 L 1500 1500 L 0 1500 Z M 0 0 " clip-rule="nonzero"/></clipPath><clipPath id="c3ecb1b57a"><path d="M 70.5 0 L 1429.5 0 C 1468.4375 0 1500 31.5625 1500 70.5 L 1500 1429.5 C 1500 1468.4375 1468.4375 1500 1429.5 1500 L 70.5 1500 C 31.5625 1500 0 1468.4375 0 1429.5 L 0 70.5 C 0 31.5625 31.5625 0 70.5 0 Z M 70.5 0 " clip-rule="nonzero"/></clipPath><clipPath id="6680715f37"><rect x="0" width="1500" y="0" height="1500"/></clipPath><clipPath id="405c0342a5"><path d="M 883 0 L 1240.160156 0 L 1240.160156 1500 L 883 1500 Z M 883 0 " clip-rule="nonzero"/></clipPath><clipPath id="b44a836811"><rect x="0" width="358" y="0" height="1500"/></clipPath><clipPath id="9bf4959e0a"><rect x="0" width="1241" y="0" height="1500"/></clipPath></defs><g clip-path="url(#c371e79ef2)"><g transform="matrix(1, 0, 0, 1, 0, 0.000000000000112861)"><g clip-path="url(#6680715f37)"><g clip-path="url(#77ea4271f9)"><g clip-path="url(#c3ecb1b57a)"><rect x="-330" width="2160" fill="#846df2" height="2159.999904" y="-329.999985" fill-opacity="1"/></g></g></g></g></g><g transform="matrix(1, 0, 0, 1, 130, 0.000000000000112861)"><g clip-path="url(#9bf4959e0a)"><g fill="#ffffff" fill-opacity="1"><g transform="translate(0.15801, 1255.221312)"><g><path d="M 552.84375 0 L 330.8125 0 L 16.546875 -930.109375 L 211.859375 -930.109375 L 437.703125 -236.65625 L 453.609375 -236.65625 L 676.265625 -930.109375 L 866.5 -930.109375 Z M 552.84375 0 "/></g></g></g><g clip-path="url(#405c0342a5)"><g transform="matrix(1, 0, 0, 1, 883, 0.000000000000112861)"><g clip-path="url(#b44a836811)"><g fill="#ffffff" fill-opacity="1"><g transform="translate(0.190884, 1257.73808)"><g><path d="M 178.328125 -741.515625 C 148.304688 -741.515625 123.890625 -750.617188 105.078125 -768.828125 C 86.265625 -787.046875 76.859375 -810.566406 76.859375 -839.390625 C 76.859375 -867.804688 86.265625 -891.117188 105.078125 -909.328125 C 123.890625 -927.546875 148.304688 -936.65625 178.328125 -936.65625 C 198.335938 -936.65625 216.144531 -932.453125 231.75 -924.046875 C 247.363281 -915.640625 259.472656 -904.128906 268.078125 -889.515625 C 276.691406 -874.910156 281 -858.203125 281 -839.390625 C 281 -820.578125 276.691406 -803.765625 268.078125 -788.953125 C 259.472656 -774.140625 247.363281 -762.53125 231.75 -754.125 C 216.144531 -745.71875 198.335938 -741.515625 178.328125 -741.515625 Z M 95.46875 0 L 95.46875 -662.265625 L 261.78125 -662.265625 L 261.78125 0 Z M 95.46875 0 "/></g></g></g></g></g></g></g></g></svg>